<mxfile host="app.diagrams.net" agent="Mozilla/5.0 (Macintosh; Intel Mac OS X 10_15_7) AppleWebKit/537.36 (KHTML, like Gecko) Chrome/137.0.0.0 Safari/537.36" version="28.0.9">
  <diagram name="Страница — 1" id="r_YG-c5ILHsq_L1gIWih">
    <mxGraphModel dx="1454" dy="984" grid="1" gridSize="10" guides="1" tooltips="1" connect="1" arrows="1" fold="1" page="1" pageScale="1" pageWidth="1169" pageHeight="827" math="0" shadow="0">
      <root>
        <mxCell id="0" />
        <mxCell id="1" parent="0" />
        <mxCell id="fODarJ_ECDpb55EM-dpD-6" style="edgeStyle=orthogonalEdgeStyle;rounded=0;orthogonalLoop=1;jettySize=auto;html=1;" edge="1" parent="1" source="fODarJ_ECDpb55EM-dpD-1" target="fODarJ_ECDpb55EM-dpD-5">
          <mxGeometry relative="1" as="geometry" />
        </mxCell>
        <mxCell id="fODarJ_ECDpb55EM-dpD-7" value="Уточнение деталей открытия депозита" style="edgeLabel;html=1;align=center;verticalAlign=middle;resizable=0;points=[];" vertex="1" connectable="0" parent="fODarJ_ECDpb55EM-dpD-6">
          <mxGeometry x="-0.2014" y="4" relative="1" as="geometry">
            <mxPoint as="offset" />
          </mxGeometry>
        </mxCell>
        <object placeholders="1" c4Name="Клиент" c4Type="Person" c4Description="" label="&lt;font style=&quot;font-size: 16px&quot;&gt;&lt;b&gt;%c4Name%&lt;/b&gt;&lt;/font&gt;&lt;div&gt;[%c4Type%]&lt;/div&gt;&lt;br&gt;&lt;div&gt;&lt;font style=&quot;font-size: 11px&quot;&gt;&lt;font color=&quot;#cccccc&quot;&gt;%c4Description%&lt;/font&gt;&lt;/div&gt;" id="fODarJ_ECDpb55EM-dpD-1">
          <mxCell style="html=1;fontSize=11;dashed=0;whiteSpace=wrap;fillColor=#083F75;strokeColor=#06315C;fontColor=#ffffff;shape=mxgraph.c4.person2;align=center;metaEdit=1;points=[[0.5,0,0],[1,0.5,0],[1,0.75,0],[0.75,1,0],[0.5,1,0],[0.25,1,0],[0,0.75,0],[0,0.5,0]];resizable=0;" vertex="1" parent="1">
            <mxGeometry x="170" y="90" width="200" height="180" as="geometry" />
          </mxCell>
        </object>
        <mxCell id="fODarJ_ECDpb55EM-dpD-2" value="&lt;font style=&quot;font-size: 18px;&quot;&gt;Отделение банка&lt;/font&gt;" style="rounded=0;whiteSpace=wrap;html=1;" vertex="1" parent="1">
          <mxGeometry x="140" y="420" width="280" height="116" as="geometry" />
        </mxCell>
        <mxCell id="fODarJ_ECDpb55EM-dpD-3" style="edgeStyle=orthogonalEdgeStyle;rounded=0;orthogonalLoop=1;jettySize=auto;html=1;entryX=0.461;entryY=0.017;entryDx=0;entryDy=0;entryPerimeter=0;" edge="1" parent="1" source="fODarJ_ECDpb55EM-dpD-1" target="fODarJ_ECDpb55EM-dpD-2">
          <mxGeometry relative="1" as="geometry" />
        </mxCell>
        <mxCell id="fODarJ_ECDpb55EM-dpD-4" value="Подача заявки на открытие депозита" style="edgeLabel;html=1;align=center;verticalAlign=middle;resizable=0;points=[];" vertex="1" connectable="0" parent="fODarJ_ECDpb55EM-dpD-3">
          <mxGeometry x="-0.1786" y="-3" relative="1" as="geometry">
            <mxPoint as="offset" />
          </mxGeometry>
        </mxCell>
        <mxCell id="fODarJ_ECDpb55EM-dpD-9" style="edgeStyle=orthogonalEdgeStyle;rounded=0;orthogonalLoop=1;jettySize=auto;html=1;" edge="1" parent="1" source="fODarJ_ECDpb55EM-dpD-5" target="fODarJ_ECDpb55EM-dpD-8">
          <mxGeometry relative="1" as="geometry" />
        </mxCell>
        <mxCell id="fODarJ_ECDpb55EM-dpD-10" value="Создание обращения" style="edgeLabel;html=1;align=center;verticalAlign=middle;resizable=0;points=[];" vertex="1" connectable="0" parent="fODarJ_ECDpb55EM-dpD-9">
          <mxGeometry x="-0.0312" y="-2" relative="1" as="geometry">
            <mxPoint as="offset" />
          </mxGeometry>
        </mxCell>
        <mxCell id="fODarJ_ECDpb55EM-dpD-5" value="&lt;font style=&quot;font-size: 18px;&quot;&gt;Call-центр&lt;/font&gt;" style="rounded=0;whiteSpace=wrap;html=1;" vertex="1" parent="1">
          <mxGeometry x="770" y="122" width="280" height="116" as="geometry" />
        </mxCell>
        <mxCell id="fODarJ_ECDpb55EM-dpD-15" style="edgeStyle=orthogonalEdgeStyle;rounded=0;orthogonalLoop=1;jettySize=auto;html=1;" edge="1" parent="1" source="fODarJ_ECDpb55EM-dpD-8" target="fODarJ_ECDpb55EM-dpD-14">
          <mxGeometry relative="1" as="geometry" />
        </mxCell>
        <mxCell id="fODarJ_ECDpb55EM-dpD-16" value="Отправка оповещений" style="edgeLabel;html=1;align=center;verticalAlign=middle;resizable=0;points=[];" vertex="1" connectable="0" parent="fODarJ_ECDpb55EM-dpD-15">
          <mxGeometry x="-0.2545" y="3" relative="1" as="geometry">
            <mxPoint x="29" y="-5" as="offset" />
          </mxGeometry>
        </mxCell>
        <mxCell id="fODarJ_ECDpb55EM-dpD-8" value="&lt;span style=&quot;font-size: 18px;&quot;&gt;АБС&lt;/span&gt;" style="rounded=0;whiteSpace=wrap;html=1;" vertex="1" parent="1">
          <mxGeometry x="770" y="370" width="280" height="116" as="geometry" />
        </mxCell>
        <mxCell id="fODarJ_ECDpb55EM-dpD-12" style="edgeStyle=orthogonalEdgeStyle;rounded=0;orthogonalLoop=1;jettySize=auto;html=1;entryX=0.5;entryY=1;entryDx=0;entryDy=0;" edge="1" parent="1" source="fODarJ_ECDpb55EM-dpD-20" target="fODarJ_ECDpb55EM-dpD-8">
          <mxGeometry relative="1" as="geometry">
            <mxPoint x="910" y="640" as="sourcePoint" />
          </mxGeometry>
        </mxCell>
        <mxCell id="fODarJ_ECDpb55EM-dpD-13" value="Обработка заявки" style="edgeLabel;html=1;align=center;verticalAlign=middle;resizable=0;points=[];" vertex="1" connectable="0" parent="fODarJ_ECDpb55EM-dpD-12">
          <mxGeometry x="-0.0474" y="1" relative="1" as="geometry">
            <mxPoint as="offset" />
          </mxGeometry>
        </mxCell>
        <mxCell id="fODarJ_ECDpb55EM-dpD-18" style="edgeStyle=orthogonalEdgeStyle;rounded=0;orthogonalLoop=1;jettySize=auto;html=1;exitX=1;exitY=0.5;exitDx=0;exitDy=0;exitPerimeter=0;" edge="1" parent="1" source="fODarJ_ECDpb55EM-dpD-20" target="fODarJ_ECDpb55EM-dpD-21">
          <mxGeometry relative="1" as="geometry">
            <mxPoint x="1050" y="698" as="sourcePoint" />
            <mxPoint x="1250" y="698.0000000000002" as="targetPoint" />
          </mxGeometry>
        </mxCell>
        <mxCell id="fODarJ_ECDpb55EM-dpD-19" value="Отправка&amp;nbsp;&lt;div&gt;обращений&lt;/div&gt;" style="edgeLabel;html=1;align=center;verticalAlign=middle;resizable=0;points=[];" vertex="1" connectable="0" parent="fODarJ_ECDpb55EM-dpD-18">
          <mxGeometry x="0.1554" y="3" relative="1" as="geometry">
            <mxPoint as="offset" />
          </mxGeometry>
        </mxCell>
        <mxCell id="fODarJ_ECDpb55EM-dpD-14" value="&lt;span style=&quot;font-size: 18px;&quot;&gt;СМС-шлюз телеком оператора&lt;/span&gt;" style="rounded=0;whiteSpace=wrap;html=1;" vertex="1" parent="1">
          <mxGeometry x="445" y="560" width="280" height="116" as="geometry" />
        </mxCell>
        <object placeholders="1" c4Name="Сотрудник бек-офиса" c4Type="Person" c4Description="" label="&lt;font style=&quot;font-size: 16px&quot;&gt;&lt;b&gt;%c4Name%&lt;/b&gt;&lt;/font&gt;&lt;div&gt;[%c4Type%]&lt;/div&gt;&lt;br&gt;&lt;div&gt;&lt;font style=&quot;font-size: 11px&quot;&gt;&lt;font color=&quot;#cccccc&quot;&gt;%c4Description%&lt;/font&gt;&lt;/div&gt;" id="fODarJ_ECDpb55EM-dpD-20">
          <mxCell style="html=1;fontSize=11;dashed=0;whiteSpace=wrap;fillColor=#083F75;strokeColor=#06315C;fontColor=#ffffff;shape=mxgraph.c4.person2;align=center;metaEdit=1;points=[[0.5,0,0],[1,0.5,0],[1,0.75,0],[0.75,1,0],[0.5,1,0],[0.25,1,0],[0,0.75,0],[0,0.5,0]];resizable=0;" vertex="1" parent="1">
            <mxGeometry x="810" y="600" width="200" height="180" as="geometry" />
          </mxCell>
        </object>
        <mxCell id="fODarJ_ECDpb55EM-dpD-23" style="edgeStyle=orthogonalEdgeStyle;rounded=0;orthogonalLoop=1;jettySize=auto;html=1;" edge="1" parent="1" source="fODarJ_ECDpb55EM-dpD-21" target="fODarJ_ECDpb55EM-dpD-22">
          <mxGeometry relative="1" as="geometry" />
        </mxCell>
        <mxCell id="fODarJ_ECDpb55EM-dpD-24" value="Передача данных&amp;nbsp;&lt;div&gt;кредитного риска&lt;/div&gt;" style="edgeLabel;html=1;align=center;verticalAlign=middle;resizable=0;points=[];" vertex="1" connectable="0" parent="fODarJ_ECDpb55EM-dpD-23">
          <mxGeometry x="-0.4681" relative="1" as="geometry">
            <mxPoint x="37" as="offset" />
          </mxGeometry>
        </mxCell>
        <object placeholders="1" c4Name="Сотрудник отдела кредитования" c4Type="Person" c4Description="" label="&lt;font style=&quot;font-size: 16px&quot;&gt;&lt;b&gt;%c4Name%&lt;/b&gt;&lt;/font&gt;&lt;div&gt;[%c4Type%]&lt;/div&gt;&lt;br&gt;&lt;div&gt;&lt;font style=&quot;font-size: 11px&quot;&gt;&lt;font color=&quot;#cccccc&quot;&gt;%c4Description%&lt;/font&gt;&lt;/div&gt;" id="fODarJ_ECDpb55EM-dpD-21">
          <mxCell style="html=1;fontSize=11;dashed=0;whiteSpace=wrap;fillColor=#083F75;strokeColor=#06315C;fontColor=#ffffff;shape=mxgraph.c4.person2;align=center;metaEdit=1;points=[[0.5,0,0],[1,0.5,0],[1,0.75,0],[0.75,1,0],[0.5,1,0],[0.25,1,0],[0,0.75,0],[0,0.5,0]];resizable=0;" vertex="1" parent="1">
            <mxGeometry x="1110" y="600" width="200" height="180" as="geometry" />
          </mxCell>
        </object>
        <object placeholders="1" c4Name="Менеджер депозитов" c4Type="Person" c4Description="" label="&lt;font style=&quot;font-size: 16px&quot;&gt;&lt;b&gt;%c4Name%&lt;/b&gt;&lt;/font&gt;&lt;div&gt;[%c4Type%]&lt;/div&gt;&lt;br&gt;&lt;div&gt;&lt;font style=&quot;font-size: 11px&quot;&gt;&lt;font color=&quot;#cccccc&quot;&gt;%c4Description%&lt;/font&gt;&lt;/div&gt;" id="fODarJ_ECDpb55EM-dpD-22">
          <mxCell style="html=1;fontSize=11;dashed=0;whiteSpace=wrap;fillColor=#083F75;strokeColor=#06315C;fontColor=#ffffff;shape=mxgraph.c4.person2;align=center;metaEdit=1;points=[[0.5,0,0],[1,0.5,0],[1,0.75,0],[0.75,1,0],[0.5,1,0],[0.25,1,0],[0,0.75,0],[0,0.5,0]];resizable=0;" vertex="1" parent="1">
            <mxGeometry x="1480" y="600" width="200" height="180" as="geometry" />
          </mxCell>
        </object>
        <mxCell id="fODarJ_ECDpb55EM-dpD-28" style="edgeStyle=orthogonalEdgeStyle;rounded=0;orthogonalLoop=1;jettySize=auto;html=1;" edge="1" parent="1" source="fODarJ_ECDpb55EM-dpD-25" target="fODarJ_ECDpb55EM-dpD-8">
          <mxGeometry relative="1" as="geometry" />
        </mxCell>
        <mxCell id="fODarJ_ECDpb55EM-dpD-29" value="Создание депозита" style="edgeLabel;html=1;align=center;verticalAlign=middle;resizable=0;points=[];" vertex="1" connectable="0" parent="fODarJ_ECDpb55EM-dpD-28">
          <mxGeometry x="0.1654" y="-3" relative="1" as="geometry">
            <mxPoint x="-1" as="offset" />
          </mxGeometry>
        </mxCell>
        <object placeholders="1" c4Name="Сотрудник фронт-офиса" c4Type="Person" c4Description="" label="&lt;font style=&quot;font-size: 16px&quot;&gt;&lt;b&gt;%c4Name%&lt;/b&gt;&lt;/font&gt;&lt;div&gt;[%c4Type%]&lt;/div&gt;&lt;br&gt;&lt;div&gt;&lt;font style=&quot;font-size: 11px&quot;&gt;&lt;font color=&quot;#cccccc&quot;&gt;%c4Description%&lt;/font&gt;&lt;/div&gt;" id="fODarJ_ECDpb55EM-dpD-25">
          <mxCell style="html=1;fontSize=11;dashed=0;whiteSpace=wrap;fillColor=#083F75;strokeColor=#06315C;fontColor=#ffffff;shape=mxgraph.c4.person2;align=center;metaEdit=1;points=[[0.5,0,0],[1,0.5,0],[1,0.75,0],[0.75,1,0],[0.5,1,0],[0.25,1,0],[0,0.75,0],[0,0.5,0]];resizable=0;" vertex="1" parent="1">
            <mxGeometry x="1480" y="338" width="200" height="180" as="geometry" />
          </mxCell>
        </object>
        <mxCell id="fODarJ_ECDpb55EM-dpD-26" style="edgeStyle=orthogonalEdgeStyle;rounded=0;orthogonalLoop=1;jettySize=auto;html=1;entryX=0.5;entryY=1;entryDx=0;entryDy=0;entryPerimeter=0;" edge="1" parent="1" source="fODarJ_ECDpb55EM-dpD-22" target="fODarJ_ECDpb55EM-dpD-25">
          <mxGeometry relative="1" as="geometry" />
        </mxCell>
        <mxCell id="fODarJ_ECDpb55EM-dpD-27" value="Вычисление ставки" style="edgeLabel;html=1;align=center;verticalAlign=middle;resizable=0;points=[];" vertex="1" connectable="0" parent="fODarJ_ECDpb55EM-dpD-26">
          <mxGeometry x="0.1228" y="-1" relative="1" as="geometry">
            <mxPoint as="offset" />
          </mxGeometry>
        </mxCell>
        <mxCell id="fODarJ_ECDpb55EM-dpD-32" style="edgeStyle=orthogonalEdgeStyle;rounded=0;orthogonalLoop=1;jettySize=auto;html=1;entryX=0;entryY=0.75;entryDx=0;entryDy=0;entryPerimeter=0;" edge="1" parent="1" source="fODarJ_ECDpb55EM-dpD-2" target="fODarJ_ECDpb55EM-dpD-20">
          <mxGeometry relative="1" as="geometry">
            <Array as="points">
              <mxPoint x="260" y="735" />
            </Array>
          </mxGeometry>
        </mxCell>
        <mxCell id="fODarJ_ECDpb55EM-dpD-33" value="Отправка обращения" style="edgeLabel;html=1;align=center;verticalAlign=middle;resizable=0;points=[];" vertex="1" connectable="0" parent="fODarJ_ECDpb55EM-dpD-32">
          <mxGeometry x="0.173" y="-3" relative="1" as="geometry">
            <mxPoint x="-1" as="offset" />
          </mxGeometry>
        </mxCell>
      </root>
    </mxGraphModel>
  </diagram>
</mxfile>
